<svg xmlns="http://www.w3.org/2000/svg" fill="none" viewBox="0 0 48 48"><ellipse stroke-linejoin="round" stroke-linecap="round" stroke-width="4" stroke="#0081ff" ry="5" rx="10" cy="10" cx="14" data-follow-stroke="#0081ff"/><path stroke-linejoin="round" stroke-linecap="round" stroke-width="4" stroke="#0081ff" d="M4 10v7c0 2.761 4.477 5 10 5s10-2.239 10-5v-7" data-follow-stroke="#0081ff"/><path stroke-linejoin="round" stroke-linecap="round" stroke-width="4" stroke="#0081ff" d="M4 17v7c0 2.761 4.477 5 10 5s10-2.239 10-5v-7" data-follow-stroke="#0081ff"/><path stroke-linejoin="round" stroke-linecap="round" stroke-width="4" stroke="#0081ff" d="M4 24v7c0 2.761 4.477 5 10 5s10-2.239 10-5v-7" data-follow-stroke="#0081ff"/><path stroke-linejoin="round" stroke-linecap="round" stroke-width="4" stroke="#0081ff" d="M4 31v7c0 2.761 4.477 5 10 5s10-2.239 10-5v-7" data-follow-stroke="#0081ff"/><ellipse stroke-linejoin="round" stroke-linecap="round" stroke-width="4" stroke="#0081ff" ry="5" rx="10" cy="24" cx="34" data-follow-stroke="#0081ff"/><path stroke-linejoin="round" stroke-linecap="round" stroke-width="4" stroke="#0081ff" d="M24 24v7c0 2.761 4.477 5 10 5s10-2.239 10-5v-7" data-follow-stroke="#0081ff"/><path stroke-linejoin="round" stroke-linecap="round" stroke-width="4" stroke="#0081ff" d="M24 31v7c0 2.761 4.477 5 10 5s10-2.239 10-5v-7" data-follow-stroke="#0081ff"/></svg>